<?xml version="1.0" encoding="UTF-8" standalone="no"?>
<!-- Created with Inkscape (http://www.inkscape.org/) -->

<svg
   width="52.557991mm"
   height="52.555061mm"
   viewBox="0 0 52.557991 52.555061"
   version="1.1"
   id="svg5"
   inkscape:version="1.1.2 (b8e25be833, 2022-02-05)"
   sodipodi:docname="World Bank (Icon).svg"
   xmlns:inkscape="http://www.inkscape.org/namespaces/inkscape"
   xmlns:sodipodi="http://sodipodi.sourceforge.net/DTD/sodipodi-0.dtd"
   xmlns:xlink="http://www.w3.org/1999/xlink"
   xmlns="http://www.w3.org/2000/svg"
   xmlns:svg="http://www.w3.org/2000/svg">
  <sodipodi:namedview
     id="namedview7"
     pagecolor="#ffffff"
     bordercolor="#666666"
     borderopacity="1.0"
     inkscape:pageshadow="2"
     inkscape:pageopacity="0.0"
     inkscape:pagecheckerboard="0"
     inkscape:document-units="mm"
     showgrid="false"
     inkscape:zoom="0.64052329"
     inkscape:cx="52.300987"
     inkscape:cy="346.59161"
     inkscape:window-width="1920"
     inkscape:window-height="1017"
     inkscape:window-x="-8"
     inkscape:window-y="-8"
     inkscape:window-maximized="1"
     inkscape:current-layer="layer1" />
  <defs
     id="defs2">
    <path
       id="SVGID_1_"
       d="m 49.676,33.267 c 2.357,-0.029 4.594,-0.374 6.574,-1.039 0.498,-0.168 0.974,-0.354 1.424,-0.555 -0.551,1.345 -1.36,2.467 -2.415,3.301 -2.081,1.532 -4.536,2.583 -7.201,2.984 0.666,-1.152 1.204,-2.78 1.618,-4.691 m -11.093,3.268 c -0.049,-0.041 -0.102,-0.079 -0.162,-0.107 -0.927,-0.452 -1.302,-2.519 -0.819,-5.68 1.782,0.801 3.722,1.436 5.761,1.871 1.545,0.33 3.085,0.534 4.59,0.613 -0.738,3.208 -1.684,4.893 -2.311,4.893 -0.04,0 -0.079,0.007 -0.117,0.013 -2.484,-0.017 -4.838,-0.588 -6.942,-1.603 M 29.976,26.316 c -0.143,-0.542 -0.232,-1.095 -0.269,-1.657 0.558,0.794 1.237,1.568 2.046,2.316 1.222,1.128 2.672,2.138 4.288,3.004 -0.33,1.846 -0.423,3.519 -0.215,4.867 -2.785,-2.106 -4.869,-5.087 -5.85,-8.53 m 20.751,-4.483 c 0,-0.652 -0.01,-1.307 -0.029,-1.959 2.077,-0.138 4,-0.678 5.574,-1.583 1.458,2.884 2.24,5.927 2.234,8.799 -10e-4,0.832 -0.073,1.623 -0.205,2.37 -0.75,0.459 -1.613,0.857 -2.584,1.185 -1.724,0.58 -3.666,0.896 -5.725,0.949 0.496,-2.967 0.735,-6.412 0.735,-9.761 m -7.014,9.155 c -2.068,-0.443 -4.022,-1.1 -5.791,-1.931 0.581,-2.614 1.663,-5.781 3.377,-9.297 0.249,-0.509 0.503,-1.01 0.762,-1.5 1.199,0.538 2.504,0.965 3.872,1.257 1.039,0.223 2.079,0.344 3.096,0.379 0.019,0.626 0.027,1.271 0.027,1.937 0,3.931 -0.314,7.194 -0.768,9.744 -1.492,-0.065 -3.029,-0.26 -4.575,-0.589 M 32.887,25.75 c -1.418,-1.31 -2.393,-2.698 -2.89,-4.076 0.394,-1.544 1.156,-3.094 2.277,-4.579 1.063,-1.408 2.386,-2.676 3.903,-3.766 0.438,0.791 1.051,1.563 1.832,2.295 0.742,0.695 1.607,1.325 2.566,1.876 -0.264,0.501 -0.522,1.01 -0.774,1.528 -1.481,3.035 -2.69,6.292 -3.4,9.246 -1.319,-0.743 -2.504,-1.589 -3.514,-2.524 M 49.593,10.237 c 1.898,1.413 3.638,3.236 5.093,5.368 0.276,0.404 0.536,0.815 0.783,1.23 -1.333,0.771 -3.021,1.232 -4.84,1.361 -0.154,-2.881 -0.495,-5.653 -1.036,-7.959 m -3.31,7.648 c -1.208,-0.257 -2.356,-0.628 -3.414,-1.093 1.558,-2.725 3.261,-5.094 4.942,-6.855 0.525,2.066 0.965,4.844 1.151,8.288 -0.885,-0.037 -1.785,-0.148 -2.679,-0.34 M 39.15,14.406 c -0.691,-0.646 -1.215,-1.32 -1.568,-1.997 1.564,-0.941 3.295,-1.708 5.139,-2.263 1.097,-0.33 2.207,-0.574 3.314,-0.743 -1.598,1.791 -3.194,4.066 -4.657,6.636 -0.836,-0.483 -1.585,-1.03 -2.228,-1.633 M 35.56,9.087 c -0.023,0.084 -0.047,0.17 -0.066,0.258 -0.169,0.787 -0.149,1.594 0.049,2.394 -1.796,1.239 -3.358,2.704 -4.602,4.35 -0.379,0.501 -0.718,1.013 -1.025,1.528 0.925,-3.418 2.937,-6.392 5.644,-8.53 m 1.566,0.606 c 0.185,-0.866 0.706,-1.64 1.511,-2.28 1.949,-0.582 4.216,-0.442 6.599,0.43 C 44.233,8.017 43.23,8.249 42.241,8.548 40.4,9.1 38.662,9.856 37.07,10.774 37.034,10.409 37.051,10.047 37.126,9.693 M 50.669,7.494 C 51.242,7.123 51.77,6.869 52.211,6.764 53.048,7.099 53.878,7.528 54.665,8.07 53.402,7.754 52.059,7.562 50.669,7.494 M 47.857,5.707 C 48.534,5.783 49.257,5.899 50,6.072 49.535,6.322 49.053,6.634 48.562,7.009 48.344,6.516 48.109,6.082 47.857,5.707 M 46.048,6.362 C 45.293,6.073 44.547,5.849 43.811,5.689 44.401,5.623 44.998,5.585 45.606,5.585 45.89,5.588 46.239,5.93 46.604,6.591 46.419,6.512 46.234,6.434 46.048,6.362 m -18.367,15.5 c 0,1.706 0.245,3.355 0.692,4.92 0.027,0.105 0.053,0.21 0.084,0.315 0.006,0.019 0.015,0.037 0.022,0.058 2.264,7.321 9.096,12.654 17.15,12.654 3.726,0 7.189,-1.142 10.061,-3.092 0.029,-0.017 0.058,-0.031 0.084,-0.049 0.17,-0.116 0.335,-0.238 0.495,-0.366 3.303,-2.439 5.741,-5.982 6.769,-10.081 0.058,-0.188 0.108,-0.38 0.15,-0.574 0.01,-0.047 0.013,-0.091 0.015,-0.137 0.245,-1.179 0.373,-2.399 0.373,-3.647 0,-2.422 -0.474,-4.773 -1.411,-6.985 -0.18,-0.425 -0.669,-0.624 -1.094,-0.443 -0.425,0.178 -0.623,0.669 -0.444,1.093 0.849,2.005 1.279,4.137 1.279,6.335 0,1.347 -0.167,2.655 -0.478,3.908 -0.247,0.79 -0.68,1.521 -1.279,2.185 0.015,-0.283 0.024,-0.569 0.025,-0.862 0.007,-3.202 -0.879,-6.584 -2.521,-9.763 1.204,-1.034 1.973,-2.312 2.236,-3.741 0.084,-0.453 -0.216,-0.888 -0.669,-0.972 -0.454,-0.085 -0.889,0.215 -0.973,0.669 -0.174,0.945 -0.665,1.812 -1.433,2.548 -0.239,-0.395 -0.487,-0.786 -0.75,-1.171 -1.465,-2.148 -3.206,-4.006 -5.111,-5.489 2.515,0.166 4.839,0.775 6.711,1.821 0.293,0.167 0.683,0.162 0.958,-0.067 0.354,-0.295 0.402,-0.823 0.105,-1.177 -2.689,-3.761 -7.34,-5.836 -13.1,-5.836 -9.894,-10e-4 -17.946,8.05 -17.946,17.946" />
    <path
       id="path901"
       d="m 49.676,33.267 c 2.357,-0.029 4.594,-0.374 6.574,-1.039 0.498,-0.168 0.974,-0.354 1.424,-0.555 -0.551,1.345 -1.36,2.467 -2.415,3.301 -2.081,1.532 -4.536,2.583 -7.201,2.984 0.666,-1.152 1.204,-2.78 1.618,-4.691 m -11.093,3.268 c -0.049,-0.041 -0.102,-0.079 -0.162,-0.107 -0.927,-0.452 -1.302,-2.519 -0.819,-5.68 1.782,0.801 3.722,1.436 5.761,1.871 1.545,0.33 3.085,0.534 4.59,0.613 -0.738,3.208 -1.684,4.893 -2.311,4.893 -0.04,0 -0.079,0.007 -0.117,0.013 -2.484,-0.017 -4.838,-0.588 -6.942,-1.603 M 29.976,26.316 c -0.143,-0.542 -0.232,-1.095 -0.269,-1.657 0.558,0.794 1.237,1.568 2.046,2.316 1.222,1.128 2.672,2.138 4.288,3.004 -0.33,1.846 -0.423,3.519 -0.215,4.867 -2.785,-2.106 -4.869,-5.087 -5.85,-8.53 m 20.751,-4.483 c 0,-0.652 -0.01,-1.307 -0.029,-1.959 2.077,-0.138 4,-0.678 5.574,-1.583 1.458,2.884 2.24,5.927 2.234,8.799 -10e-4,0.832 -0.073,1.623 -0.205,2.37 -0.75,0.459 -1.613,0.857 -2.584,1.185 -1.724,0.58 -3.666,0.896 -5.725,0.949 0.496,-2.967 0.735,-6.412 0.735,-9.761 m -7.014,9.155 c -2.068,-0.443 -4.022,-1.1 -5.791,-1.931 0.581,-2.614 1.663,-5.781 3.377,-9.297 0.249,-0.509 0.503,-1.01 0.762,-1.5 1.199,0.538 2.504,0.965 3.872,1.257 1.039,0.223 2.079,0.344 3.096,0.379 0.019,0.626 0.027,1.271 0.027,1.937 0,3.931 -0.314,7.194 -0.768,9.744 -1.492,-0.065 -3.029,-0.26 -4.575,-0.589 M 32.887,25.75 c -1.418,-1.31 -2.393,-2.698 -2.89,-4.076 0.394,-1.544 1.156,-3.094 2.277,-4.579 1.063,-1.408 2.386,-2.676 3.903,-3.766 0.438,0.791 1.051,1.563 1.832,2.295 0.742,0.695 1.607,1.325 2.566,1.876 -0.264,0.501 -0.522,1.01 -0.774,1.528 -1.481,3.035 -2.69,6.292 -3.4,9.246 -1.319,-0.743 -2.504,-1.589 -3.514,-2.524 M 49.593,10.237 c 1.898,1.413 3.638,3.236 5.093,5.368 0.276,0.404 0.536,0.815 0.783,1.23 -1.333,0.771 -3.021,1.232 -4.84,1.361 -0.154,-2.881 -0.495,-5.653 -1.036,-7.959 m -3.31,7.648 c -1.208,-0.257 -2.356,-0.628 -3.414,-1.093 1.558,-2.725 3.261,-5.094 4.942,-6.855 0.525,2.066 0.965,4.844 1.151,8.288 -0.885,-0.037 -1.785,-0.148 -2.679,-0.34 M 39.15,14.406 c -0.691,-0.646 -1.215,-1.32 -1.568,-1.997 1.564,-0.941 3.295,-1.708 5.139,-2.263 1.097,-0.33 2.207,-0.574 3.314,-0.743 -1.598,1.791 -3.194,4.066 -4.657,6.636 -0.836,-0.483 -1.585,-1.03 -2.228,-1.633 M 35.56,9.087 c -0.023,0.084 -0.047,0.17 -0.066,0.258 -0.169,0.787 -0.149,1.594 0.049,2.394 -1.796,1.239 -3.358,2.704 -4.602,4.35 -0.379,0.501 -0.718,1.013 -1.025,1.528 0.925,-3.418 2.937,-6.392 5.644,-8.53 m 1.566,0.606 c 0.185,-0.866 0.706,-1.64 1.511,-2.28 1.949,-0.582 4.216,-0.442 6.599,0.43 C 44.233,8.017 43.23,8.249 42.241,8.548 40.4,9.1 38.662,9.856 37.07,10.774 37.034,10.409 37.051,10.047 37.126,9.693 M 50.669,7.494 C 51.242,7.123 51.77,6.869 52.211,6.764 53.048,7.099 53.878,7.528 54.665,8.07 53.402,7.754 52.059,7.562 50.669,7.494 M 47.857,5.707 C 48.534,5.783 49.257,5.899 50,6.072 49.535,6.322 49.053,6.634 48.562,7.009 48.344,6.516 48.109,6.082 47.857,5.707 M 46.048,6.362 C 45.293,6.073 44.547,5.849 43.811,5.689 44.401,5.623 44.998,5.585 45.606,5.585 45.89,5.588 46.239,5.93 46.604,6.591 46.419,6.512 46.234,6.434 46.048,6.362 m -18.367,15.5 c 0,1.706 0.245,3.355 0.692,4.92 0.027,0.105 0.053,0.21 0.084,0.315 0.006,0.019 0.015,0.037 0.022,0.058 2.264,7.321 9.096,12.654 17.15,12.654 3.726,0 7.189,-1.142 10.061,-3.092 0.029,-0.017 0.058,-0.031 0.084,-0.049 0.17,-0.116 0.335,-0.238 0.495,-0.366 3.303,-2.439 5.741,-5.982 6.769,-10.081 0.058,-0.188 0.108,-0.38 0.15,-0.574 0.01,-0.047 0.013,-0.091 0.015,-0.137 0.245,-1.179 0.373,-2.399 0.373,-3.647 0,-2.422 -0.474,-4.773 -1.411,-6.985 -0.18,-0.425 -0.669,-0.624 -1.094,-0.443 -0.425,0.178 -0.623,0.669 -0.444,1.093 0.849,2.005 1.279,4.137 1.279,6.335 0,1.347 -0.167,2.655 -0.478,3.908 -0.247,0.79 -0.68,1.521 -1.279,2.185 0.015,-0.283 0.024,-0.569 0.025,-0.862 0.007,-3.202 -0.879,-6.584 -2.521,-9.763 1.204,-1.034 1.973,-2.312 2.236,-3.741 0.084,-0.453 -0.216,-0.888 -0.669,-0.972 -0.454,-0.085 -0.889,0.215 -0.973,0.669 -0.174,0.945 -0.665,1.812 -1.433,2.548 -0.239,-0.395 -0.487,-0.786 -0.75,-1.171 -1.465,-2.148 -3.206,-4.006 -5.111,-5.489 2.515,0.166 4.839,0.775 6.711,1.821 0.293,0.167 0.683,0.162 0.958,-0.067 0.354,-0.295 0.402,-0.823 0.105,-1.177 -2.689,-3.761 -7.34,-5.836 -13.1,-5.836 -9.894,-10e-4 -17.946,8.05 -17.946,17.946" />
  </defs>
  <g
     inkscape:label="Layer 1"
     inkscape:groupmode="layer"
     id="layer1"
     transform="translate(-91.125746,-56.750285)">
    <g
       id="g893"
       transform="matrix(1.4642148,0,0,1.4642148,50.594816,51.01642)">
      <g
         id="g847">
        <g
           id="g845">
          <defs
             id="defs825">
            <path
               id="path920"
               d="m 49.676,33.267 c 2.357,-0.029 4.594,-0.374 6.574,-1.039 0.498,-0.168 0.974,-0.354 1.424,-0.555 -0.551,1.345 -1.36,2.467 -2.415,3.301 -2.081,1.532 -4.536,2.583 -7.201,2.984 0.666,-1.152 1.204,-2.78 1.618,-4.691 m -11.093,3.268 c -0.049,-0.041 -0.102,-0.079 -0.162,-0.107 -0.927,-0.452 -1.302,-2.519 -0.819,-5.68 1.782,0.801 3.722,1.436 5.761,1.871 1.545,0.33 3.085,0.534 4.59,0.613 -0.738,3.208 -1.684,4.893 -2.311,4.893 -0.04,0 -0.079,0.007 -0.117,0.013 -2.484,-0.017 -4.838,-0.588 -6.942,-1.603 M 29.976,26.316 c -0.143,-0.542 -0.232,-1.095 -0.269,-1.657 0.558,0.794 1.237,1.568 2.046,2.316 1.222,1.128 2.672,2.138 4.288,3.004 -0.33,1.846 -0.423,3.519 -0.215,4.867 -2.785,-2.106 -4.869,-5.087 -5.85,-8.53 m 20.751,-4.483 c 0,-0.652 -0.01,-1.307 -0.029,-1.959 2.077,-0.138 4,-0.678 5.574,-1.583 1.458,2.884 2.24,5.927 2.234,8.799 -10e-4,0.832 -0.073,1.623 -0.205,2.37 -0.75,0.459 -1.613,0.857 -2.584,1.185 -1.724,0.58 -3.666,0.896 -5.725,0.949 0.496,-2.967 0.735,-6.412 0.735,-9.761 m -7.014,9.155 c -2.068,-0.443 -4.022,-1.1 -5.791,-1.931 0.581,-2.614 1.663,-5.781 3.377,-9.297 0.249,-0.509 0.503,-1.01 0.762,-1.5 1.199,0.538 2.504,0.965 3.872,1.257 1.039,0.223 2.079,0.344 3.096,0.379 0.019,0.626 0.027,1.271 0.027,1.937 0,3.931 -0.314,7.194 -0.768,9.744 -1.492,-0.065 -3.029,-0.26 -4.575,-0.589 M 32.887,25.75 c -1.418,-1.31 -2.393,-2.698 -2.89,-4.076 0.394,-1.544 1.156,-3.094 2.277,-4.579 1.063,-1.408 2.386,-2.676 3.903,-3.766 0.438,0.791 1.051,1.563 1.832,2.295 0.742,0.695 1.607,1.325 2.566,1.876 -0.264,0.501 -0.522,1.01 -0.774,1.528 -1.481,3.035 -2.69,6.292 -3.4,9.246 -1.319,-0.743 -2.504,-1.589 -3.514,-2.524 M 49.593,10.237 c 1.898,1.413 3.638,3.236 5.093,5.368 0.276,0.404 0.536,0.815 0.783,1.23 -1.333,0.771 -3.021,1.232 -4.84,1.361 -0.154,-2.881 -0.495,-5.653 -1.036,-7.959 m -3.31,7.648 c -1.208,-0.257 -2.356,-0.628 -3.414,-1.093 1.558,-2.725 3.261,-5.094 4.942,-6.855 0.525,2.066 0.965,4.844 1.151,8.288 -0.885,-0.037 -1.785,-0.148 -2.679,-0.34 M 39.15,14.406 c -0.691,-0.646 -1.215,-1.32 -1.568,-1.997 1.564,-0.941 3.295,-1.708 5.139,-2.263 1.097,-0.33 2.207,-0.574 3.314,-0.743 -1.598,1.791 -3.194,4.066 -4.657,6.636 -0.836,-0.483 -1.585,-1.03 -2.228,-1.633 M 35.56,9.087 c -0.023,0.084 -0.047,0.17 -0.066,0.258 -0.169,0.787 -0.149,1.594 0.049,2.394 -1.796,1.239 -3.358,2.704 -4.602,4.35 -0.379,0.501 -0.718,1.013 -1.025,1.528 0.925,-3.418 2.937,-6.392 5.644,-8.53 m 1.566,0.606 c 0.185,-0.866 0.706,-1.64 1.511,-2.28 1.949,-0.582 4.216,-0.442 6.599,0.43 C 44.233,8.017 43.23,8.249 42.241,8.548 40.4,9.1 38.662,9.856 37.07,10.774 37.034,10.409 37.051,10.047 37.126,9.693 M 50.669,7.494 C 51.242,7.123 51.77,6.869 52.211,6.764 53.048,7.099 53.878,7.528 54.665,8.07 53.402,7.754 52.059,7.562 50.669,7.494 M 47.857,5.707 C 48.534,5.783 49.257,5.899 50,6.072 49.535,6.322 49.053,6.634 48.562,7.009 48.344,6.516 48.109,6.082 47.857,5.707 M 46.048,6.362 C 45.293,6.073 44.547,5.849 43.811,5.689 44.401,5.623 44.998,5.585 45.606,5.585 45.89,5.588 46.239,5.93 46.604,6.591 46.419,6.512 46.234,6.434 46.048,6.362 m -18.367,15.5 c 0,1.706 0.245,3.355 0.692,4.92 0.027,0.105 0.053,0.21 0.084,0.315 0.006,0.019 0.015,0.037 0.022,0.058 2.264,7.321 9.096,12.654 17.15,12.654 3.726,0 7.189,-1.142 10.061,-3.092 0.029,-0.017 0.058,-0.031 0.084,-0.049 0.17,-0.116 0.335,-0.238 0.495,-0.366 3.303,-2.439 5.741,-5.982 6.769,-10.081 0.058,-0.188 0.108,-0.38 0.15,-0.574 0.01,-0.047 0.013,-0.091 0.015,-0.137 0.245,-1.179 0.373,-2.399 0.373,-3.647 0,-2.422 -0.474,-4.773 -1.411,-6.985 -0.18,-0.425 -0.669,-0.624 -1.094,-0.443 -0.425,0.178 -0.623,0.669 -0.444,1.093 0.849,2.005 1.279,4.137 1.279,6.335 0,1.347 -0.167,2.655 -0.478,3.908 -0.247,0.79 -0.68,1.521 -1.279,2.185 0.015,-0.283 0.024,-0.569 0.025,-0.862 0.007,-3.202 -0.879,-6.584 -2.521,-9.763 1.204,-1.034 1.973,-2.312 2.236,-3.741 0.084,-0.453 -0.216,-0.888 -0.669,-0.972 -0.454,-0.085 -0.889,0.215 -0.973,0.669 -0.174,0.945 -0.665,1.812 -1.433,2.548 -0.239,-0.395 -0.487,-0.786 -0.75,-1.171 -1.465,-2.148 -3.206,-4.006 -5.111,-5.489 2.515,0.166 4.839,0.775 6.711,1.821 0.293,0.167 0.683,0.162 0.958,-0.067 0.354,-0.295 0.402,-0.823 0.105,-1.177 -2.689,-3.761 -7.34,-5.836 -13.1,-5.836 -9.894,-10e-4 -17.946,8.05 -17.946,17.946" />
          </defs>
          <clipPath
             id="SVGID_2_">
            <use
               xlink:href="#SVGID_1_"
               overflow="visible"
               id="use827"
               x="0"
               y="0"
               width="100%"
               height="100%" />
          </clipPath>
          <radialGradient
             id="SVGID_3_"
             cx="-136.1116"
             cy="-310.58691"
             r="0.4894"
             gradientTransform="matrix(60.7425,0,0,60.7427,8329.7441,18876.488)"
             gradientUnits="userSpaceOnUse">
            <stop
               offset="0"
               style="stop-color:#FFFFFF"
               id="stop830" />
            <stop
               offset="0.0598"
               style="stop-color:#E7F6FD"
               id="stop832" />
            <stop
               offset="0.1829"
               style="stop-color:#AFE2FA"
               id="stop834" />
            <stop
               offset="0.3589"
               style="stop-color:#37C6F4"
               id="stop836" />
            <stop
               offset="0.544"
               style="stop-color:#00AEEF"
               id="stop838" />
            <stop
               offset="1"
               style="stop-color:#002F54"
               id="stop840" />
          </radialGradient>
          <rect
             x="27.681"
             y="3.915"
             clip-path="url(#SVGID_2_)"
             fill="url(#SVGID_3_)"
             width="35.895"
             height="35.894001"
             id="rect843"
             style="fill:url(#SVGID_3_)" />
        </g>
      </g>
    </g>
  </g>
</svg>
